# xmcd CD database file
#
# Track frame offsets:
#	150
#	19067
#	37170
#	54667
#
# Disc length: 1085 seconds
#
# Revision: 0
# Processed by: cddbd v1.5.1PL0 Copyright (c) Steve Scherf et al.
# Submitted via: CDex 1.51
#
DISCID=30043b04
DTITLE=和田加奈子 - 約束のイブ
DYEAR=1990
DGENRE=Pop
TTITLE0=01-WHEN YOU WISH UPON A STAR
TTITLE1=02-LAST CHRISTMAS EVE
TTITLE2=03-GIVE LOVE ON CHRISTMAS DAY
TTITLE3=04-約束のイブ（1990 VERSION）
EXTD=YEAR: 1990
EXTT0=
EXTT1=
EXTT2=
EXTT3=
PLAYORDER=
